{
	"patcher" : 	{
		"fileversion" : 1,
		"appversion" : 		{
			"major" : 8,
			"minor" : 5,
			"revision" : 2,
			"architecture" : "x64",
			"modernui" : 1
		}
,
		"classnamespace" : "box",
		"rect" : [ -94.0, -953.0, 1187.0, 660.0 ],
		"bglocked" : 0,
		"openinpresentation" : 0,
		"default_fontsize" : 12.0,
		"default_fontface" : 0,
		"default_fontname" : "Arial",
		"gridonopen" : 1,
		"gridsize" : [ 15.0, 15.0 ],
		"gridsnaponopen" : 1,
		"objectsnaponopen" : 1,
		"statusbarvisible" : 2,
		"toolbarvisible" : 1,
		"lefttoolbarpinned" : 0,
		"toptoolbarpinned" : 0,
		"righttoolbarpinned" : 0,
		"bottomtoolbarpinned" : 0,
		"toolbars_unpinned_last_save" : 0,
		"tallnewobj" : 0,
		"boxanimatetime" : 200,
		"enablehscroll" : 1,
		"enablevscroll" : 1,
		"devicewidth" : 0.0,
		"description" : "",
		"digest" : "",
		"tags" : "",
		"style" : "",
		"subpatcher_template" : "",
		"assistshowspatchername" : 0,
		"boxes" : [ 			{
				"box" : 				{
					"bubblesize" : 16,
					"id" : "obj-3",
					"maxclass" : "preset",
					"numinlets" : 1,
					"numoutlets" : 5,
					"outlettype" : [ "preset", "int", "preset", "int", "" ],
					"patching_rect" : [ 664.0, 79.178374916315079, 131.0, 129.0 ],
					"preset_data" : [ 						{
							"number" : 1,
							"data" : [ 5, "obj-47", "attrui", "attr", "b", 5, "obj-47", "attrui", "float", 0.0994, 5, "obj-46", "attrui", "attr", "dt", 5, "obj-46", "attrui", "float", 0.24, 5, "obj-54", "live.gain~", "float", -24.963840484619141, 5, "obj-5", "flonum", "float", 0.189999997615814 ]
						}
, 						{
							"number" : 2,
							"data" : [ 5, "obj-47", "attrui", "attr", "b", 5, "obj-47", "attrui", "float", 0.055, 5, "obj-46", "attrui", "attr", "dt", 5, "obj-46", "attrui", "float", 0.161, 5, "obj-54", "live.gain~", "float", -24.963840484619141, 5, "obj-5", "flonum", "float", 0.189999997615814 ]
						}
, 						{
							"number" : 3,
							"data" : [ 5, "obj-47", "attrui", "attr", "b", 5, "obj-47", "attrui", "float", 0.2, 5, "obj-46", "attrui", "attr", "dt", 5, "obj-46", "attrui", "float", 0.161, 5, "obj-54", "live.gain~", "float", -24.963840484619141, 5, "obj-5", "flonum", "float", 0.189999997615814 ]
						}
, 						{
							"number" : 4,
							"data" : [ 5, "obj-47", "attrui", "attr", "b", 5, "obj-47", "attrui", "float", 0.0388, 5, "obj-46", "attrui", "attr", "dt", 5, "obj-46", "attrui", "float", 0.205, 5, "obj-54", "live.gain~", "float", -24.963840484619141, 5, "obj-5", "flonum", "float", 0.189999997615814 ]
						}
, 						{
							"number" : 5,
							"data" : [ 5, "obj-47", "attrui", "attr", "b", 5, "obj-47", "attrui", "float", 0.08363, 5, "obj-46", "attrui", "attr", "dt", 5, "obj-46", "attrui", "float", 0.149, 5, "obj-54", "live.gain~", "float", -24.963840484619141, 5, "obj-5", "flonum", "float", 0.189999997615814 ]
						}
, 						{
							"number" : 6,
							"data" : [ 5, "obj-47", "attrui", "attr", "b", 5, "obj-47", "attrui", "float", 0.08549, 5, "obj-46", "attrui", "attr", "dt", 5, "obj-46", "attrui", "float", 0.149, 5, "obj-54", "live.gain~", "float", -24.963840484619141, 5, "obj-5", "flonum", "float", 0.189999997615814 ]
						}
, 						{
							"number" : 7,
							"data" : [ 5, "obj-47", "attrui", "attr", "b", 5, "obj-47", "attrui", "float", 0.009, 5, "obj-46", "attrui", "attr", "dt", 5, "obj-46", "attrui", "float", 0.24, 5, "obj-54", "live.gain~", "float", -24.963840484619141, 5, "obj-5", "flonum", "float", 0.189999997615814 ]
						}
, 						{
							"number" : 8,
							"data" : [ 5, "obj-47", "attrui", "attr", "b", 5, "obj-47", "attrui", "float", 0.191, 5, "obj-46", "attrui", "attr", "dt", 5, "obj-46", "attrui", "float", 0.24, 5, "obj-54", "live.gain~", "float", -24.963840484619141, 5, "obj-5", "flonum", "float", 0.189999997615814 ]
						}
, 						{
							"number" : 9,
							"data" : [ 5, "obj-47", "attrui", "attr", "b", 5, "obj-47", "attrui", "float", 0.194, 5, "obj-46", "attrui", "attr", "dt", 5, "obj-46", "attrui", "float", 0.242, 5, "obj-54", "live.gain~", "float", -24.963840484619141, 5, "obj-5", "flonum", "float", 0.189999997615814 ]
						}
, 						{
							"number" : 12,
							"data" : [ 5, "obj-47", "attrui", "attr", "b", 5, "obj-47", "attrui", "float", 0.1023, 5, "obj-46", "attrui", "attr", "dt", 5, "obj-46", "attrui", "float", 0.142, 5, "obj-54", "live.gain~", "float", -24.963840484619141, 5, "obj-5", "flonum", "float", 0.189999997615814 ]
						}
, 						{
							"number" : 18,
							"data" : [ 5, "obj-47", "attrui", "attr", "b", 5, "obj-47", "attrui", "float", 0.132, 5, "obj-46", "attrui", "attr", "dt", 5, "obj-46", "attrui", "float", 0.142, 5, "obj-54", "live.gain~", "float", -24.963840484619141, 5, "obj-5", "flonum", "float", 0.189999997615814 ]
						}
, 						{
							"number" : 24,
							"data" : [ 5, "obj-47", "attrui", "attr", "b", 5, "obj-47", "attrui", "float", 0.1347, 5, "obj-46", "attrui", "attr", "dt", 5, "obj-46", "attrui", "float", 0.142, 5, "obj-54", "live.gain~", "float", -24.963840484619141, 5, "obj-5", "flonum", "float", 0.189999997615814 ]
						}
, 						{
							"number" : 30,
							"data" : [ 5, "obj-47", "attrui", "attr", "b", 5, "obj-47", "attrui", "float", 0.18, 5, "obj-46", "attrui", "attr", "dt", 5, "obj-46", "attrui", "float", 0.142, 5, "obj-54", "live.gain~", "float", -24.963840484619141, 5, "obj-5", "flonum", "float", 0.189999997615814 ]
						}
, 						{
							"number" : 34,
							"data" : [ 5, "obj-47", "attrui", "attr", "b", 5, "obj-47", "attrui", "float", 0.18, 5, "obj-46", "attrui", "attr", "dt", 5, "obj-46", "attrui", "float", 0.269, 5, "obj-54", "live.gain~", "float", -24.963840484619141, 5, "obj-5", "flonum", "float", 0.189999997615814 ]
						}
, 						{
							"number" : 35,
							"data" : [ 5, "obj-47", "attrui", "attr", "b", 5, "obj-47", "attrui", "float", 0.142, 5, "obj-46", "attrui", "attr", "dt", 5, "obj-46", "attrui", "float", 0.142, 5, "obj-54", "live.gain~", "float", -24.963840484619141, 5, "obj-5", "flonum", "float", 0.189999997615814 ]
						}
, 						{
							"number" : 36,
							"data" : [ 5, "obj-47", "attrui", "attr", "b", 5, "obj-47", "attrui", "float", 0.207, 5, "obj-46", "attrui", "attr", "dt", 5, "obj-46", "attrui", "float", 0.142, 5, "obj-54", "live.gain~", "float", -24.963840484619141, 5, "obj-5", "flonum", "float", 0.189999997615814 ]
						}
 ]
				}

			}
, 			{
				"box" : 				{
					"id" : "obj-27",
					"linecount" : 3,
					"maxclass" : "comment",
					"numinlets" : 1,
					"numoutlets" : 0,
					"patching_rect" : [ 203.666608512401581, 135.346536308526993, 101.595745027065277, 47.0 ],
					"text" : "dx = -bx + siny\ndy = -by + sinz\ndz = -bz + sinx"
				}

			}
, 			{
				"box" : 				{
					"id" : "obj-40",
					"linecount" : 2,
					"maxclass" : "comment",
					"numinlets" : 1,
					"numoutlets" : 0,
					"patching_rect" : [ 779.0, 455.0, 224.0, 47.0 ],
					"text" : "List of attractors:\nhttp://www.3d-meier.de/tut19/Seite0.html\n"
				}

			}
, 			{
				"box" : 				{
					"id" : "obj-7",
					"maxclass" : "live.scope~",
					"numinlets" : 2,
					"numoutlets" : 1,
					"outlettype" : [ "bang" ],
					"patching_rect" : [ 17.916661024093628, 371.944031268358231, 258.083338975906372, 269.233074426651001 ]
				}

			}
, 			{
				"box" : 				{
					"bgcolor" : [ 0.0, 0.0, 0.0, 1.0 ],
					"bufsize" : 256,
					"calccount" : 4,
					"fgcolor" : [ 0.807843137254902, 0.909803921568627, 0.815686274509804, 1.0 ],
					"id" : "obj-55",
					"maxclass" : "scope~",
					"numinlets" : 2,
					"numoutlets" : 0,
					"patching_rect" : [ 431.458850651979446, 374.944031268358231, 293.631565392017365, 266.233074426651001 ]
				}

			}
, 			{
				"box" : 				{
					"id" : "obj-4",
					"maxclass" : "newobj",
					"numinlets" : 2,
					"numoutlets" : 1,
					"outlettype" : [ "signal" ],
					"patching_rect" : [ 675.090416043996811, 344.500472217798233, 50.0, 22.0 ],
					"text" : "*~ 1."
				}

			}
, 			{
				"box" : 				{
					"format" : 6,
					"id" : "obj-5",
					"maxclass" : "flonum",
					"numinlets" : 1,
					"numoutlets" : 2,
					"outlettype" : [ "", "bang" ],
					"parameter_enable" : 0,
					"patching_rect" : [ 706.090416043996811, 296.184499174356461, 50.0, 22.0 ]
				}

			}
, 			{
				"box" : 				{
					"id" : "obj-6",
					"maxclass" : "newobj",
					"numinlets" : 2,
					"numoutlets" : 1,
					"outlettype" : [ "signal" ],
					"patching_rect" : [ 431.458850651979446, 344.500472217798233, 50.0, 22.0 ],
					"text" : "*~ 1."
				}

			}
, 			{
				"box" : 				{
					"id" : "obj-65",
					"linecount" : 4,
					"maxclass" : "comment",
					"numinlets" : 1,
					"numoutlets" : 0,
					"patching_rect" : [ 40.916661024093628, 9.958332419395447, 287.544223845005035, 60.0 ],
					"text" : "Sonifying Chaotic Attractors\nInspired by \nHearingGlass\nhttps://www.youtube.com/watch?v=EwunJYwxNcs"
				}

			}
, 			{
				"box" : 				{
					"id" : "obj-62",
					"maxclass" : "newobj",
					"numinlets" : 1,
					"numoutlets" : 1,
					"outlettype" : [ "" ],
					"patching_rect" : [ 229.044218599796295, 330.346536308526993, 81.0, 22.0 ],
					"text" : "loadmess -77"
				}

			}
, 			{
				"box" : 				{
					"id" : "obj-53",
					"maxclass" : "newobj",
					"numinlets" : 2,
					"numoutlets" : 2,
					"outlettype" : [ "signal", "signal" ],
					"patching_rect" : [ 329.460884869098663, 531.465956270694733, 45.0, 22.0 ],
					"text" : "limi~ 2"
				}

			}
, 			{
				"box" : 				{
					"id" : "obj-54",
					"lastchannelcount" : 0,
					"maxclass" : "live.gain~",
					"numinlets" : 2,
					"numoutlets" : 5,
					"outlettype" : [ "signal", "signal", "", "float", "list" ],
					"parameter_enable" : 1,
					"patching_rect" : [ 329.460884869098663, 374.944031268358231, 48.0, 136.0 ],
					"saved_attribute_attributes" : 					{
						"valueof" : 						{
							"parameter_longname" : "live.gain~[1]",
							"parameter_mmax" : 6.0,
							"parameter_mmin" : -70.0,
							"parameter_shortname" : "live.gain~",
							"parameter_type" : 0,
							"parameter_unitstyle" : 4
						}

					}
,
					"varname" : "live.gain~[1]"
				}

			}
, 			{
				"box" : 				{
					"id" : "obj-52",
					"maxclass" : "ezdac~",
					"numinlets" : 2,
					"numoutlets" : 0,
					"patching_rect" : [ 329.460884869098663, 581.93602979183197, 45.0, 45.0 ]
				}

			}
, 			{
				"box" : 				{
					"attr" : "dt",
					"id" : "obj-46",
					"maxclass" : "attrui",
					"numinlets" : 1,
					"numoutlets" : 1,
					"outlettype" : [ "" ],
					"parameter_enable" : 0,
					"patching_rect" : [ 365.300313681364059, 125.598763525485992, 182.317073941230774, 22.0 ]
				}

			}
, 			{
				"box" : 				{
					"attr" : "b",
					"id" : "obj-47",
					"maxclass" : "attrui",
					"numinlets" : 1,
					"numoutlets" : 1,
					"outlettype" : [ "" ],
					"parameter_enable" : 0,
					"patching_rect" : [ 365.300313681364059, 97.178374916315079, 182.317073941230774, 22.0 ]
				}

			}
, 			{
				"box" : 				{
					"id" : "obj-32",
					"maxclass" : "newobj",
					"numinlets" : 1,
					"numoutlets" : 3,
					"outlettype" : [ "signal", "signal", "signal" ],
					"patcher" : 					{
						"fileversion" : 1,
						"appversion" : 						{
							"major" : 8,
							"minor" : 5,
							"revision" : 2,
							"architecture" : "x64",
							"modernui" : 1
						}
,
						"classnamespace" : "dsp.gen",
						"rect" : [ 34.0, 87.0, 794.0, 679.0 ],
						"bglocked" : 0,
						"openinpresentation" : 0,
						"default_fontsize" : 12.0,
						"default_fontface" : 0,
						"default_fontname" : "Arial",
						"gridonopen" : 1,
						"gridsize" : [ 15.0, 15.0 ],
						"gridsnaponopen" : 1,
						"objectsnaponopen" : 1,
						"statusbarvisible" : 2,
						"toolbarvisible" : 1,
						"lefttoolbarpinned" : 0,
						"toptoolbarpinned" : 0,
						"righttoolbarpinned" : 0,
						"bottomtoolbarpinned" : 0,
						"toolbars_unpinned_last_save" : 0,
						"tallnewobj" : 0,
						"boxanimatetime" : 200,
						"enablehscroll" : 1,
						"enablevscroll" : 1,
						"devicewidth" : 0.0,
						"description" : "",
						"digest" : "",
						"tags" : "",
						"style" : "",
						"subpatcher_template" : "",
						"assistshowspatchername" : 0,
						"boxes" : [ 							{
								"box" : 								{
									"code" : "Param dt(0.1);\nParam b(0.19);\r\n\nHistory z(-0.56);\nHistory y(0.21);\nHistory x(0.44);\n\r\ndz = -b*z + sin(x);\r\nz = z + dz*dt;\nout3 = z;\n\r\ndy = -b*y + sin(z);\r\ny = y + dy*dt;\r\nout2 = y;\r\n\ndx = -b*x + sin(y);\r\nx = x + dx*dt;\r\nout1 = x;\r\n\nz = fixdenorm(z);\ny = fixdenorm(y);\nx = fixdenorm(x);\n",
									"fontface" : 0,
									"fontname" : "<Monospaced>",
									"fontsize" : 12.0,
									"id" : "obj-3",
									"maxclass" : "codebox",
									"numinlets" : 1,
									"numoutlets" : 3,
									"outlettype" : [ "", "", "" ],
									"patching_rect" : [ 81.228347480297089, 6.0, 511.0, 521.0 ]
								}

							}
, 							{
								"box" : 								{
									"id" : "obj-7",
									"maxclass" : "newobj",
									"numinlets" : 1,
									"numoutlets" : 0,
									"patching_rect" : [ 556.818630695343018, 551.000932306051254, 35.0, 22.0 ],
									"text" : "out 3"
								}

							}
, 							{
								"box" : 								{
									"id" : "obj-6",
									"maxclass" : "newobj",
									"numinlets" : 1,
									"numoutlets" : 0,
									"patching_rect" : [ 323.295913815498352, 544.000932306051254, 35.0, 22.0 ],
									"text" : "out 2"
								}

							}
, 							{
								"box" : 								{
									"id" : "obj-4",
									"maxclass" : "newobj",
									"numinlets" : 1,
									"numoutlets" : 0,
									"patching_rect" : [ 81.228347480297089, 551.000932306051254, 35.0, 22.0 ],
									"text" : "out 1"
								}

							}
 ],
						"lines" : [ 							{
								"patchline" : 								{
									"destination" : [ "obj-4", 0 ],
									"source" : [ "obj-3", 0 ]
								}

							}
, 							{
								"patchline" : 								{
									"destination" : [ "obj-6", 0 ],
									"source" : [ "obj-3", 1 ]
								}

							}
, 							{
								"patchline" : 								{
									"destination" : [ "obj-7", 0 ],
									"source" : [ "obj-3", 2 ]
								}

							}
 ]
					}
,
					"patching_rect" : [ 329.460884869098663, 160.346536308526993, 50.5, 22.0 ],
					"text" : "gen~"
				}

			}
, 			{
				"box" : 				{
					"id" : "obj-1",
					"maxclass" : "message",
					"numinlets" : 2,
					"numoutlets" : 1,
					"outlettype" : [ "" ],
					"patching_rect" : [ 550.617387622594833, 130.346535999999986, 52.0, 22.0 ],
					"text" : "reset $1"
				}

			}
 ],
		"lines" : [ 			{
				"patchline" : 				{
					"destination" : [ "obj-32", 0 ],
					"source" : [ "obj-1", 0 ]
				}

			}
, 			{
				"patchline" : 				{
					"destination" : [ "obj-4", 0 ],
					"source" : [ "obj-32", 1 ]
				}

			}
, 			{
				"patchline" : 				{
					"destination" : [ "obj-54", 0 ],
					"order" : 1,
					"source" : [ "obj-32", 0 ]
				}

			}
, 			{
				"patchline" : 				{
					"destination" : [ "obj-6", 0 ],
					"order" : 0,
					"source" : [ "obj-32", 0 ]
				}

			}
, 			{
				"patchline" : 				{
					"destination" : [ "obj-55", 1 ],
					"source" : [ "obj-4", 0 ]
				}

			}
, 			{
				"patchline" : 				{
					"destination" : [ "obj-32", 0 ],
					"source" : [ "obj-46", 0 ]
				}

			}
, 			{
				"patchline" : 				{
					"destination" : [ "obj-32", 0 ],
					"source" : [ "obj-47", 0 ]
				}

			}
, 			{
				"patchline" : 				{
					"destination" : [ "obj-4", 1 ],
					"order" : 0,
					"source" : [ "obj-5", 0 ]
				}

			}
, 			{
				"patchline" : 				{
					"destination" : [ "obj-6", 1 ],
					"order" : 1,
					"source" : [ "obj-5", 0 ]
				}

			}
, 			{
				"patchline" : 				{
					"destination" : [ "obj-52", 1 ],
					"source" : [ "obj-53", 1 ]
				}

			}
, 			{
				"patchline" : 				{
					"destination" : [ "obj-52", 0 ],
					"order" : 0,
					"source" : [ "obj-53", 0 ]
				}

			}
, 			{
				"patchline" : 				{
					"destination" : [ "obj-7", 0 ],
					"order" : 1,
					"source" : [ "obj-53", 0 ]
				}

			}
, 			{
				"patchline" : 				{
					"destination" : [ "obj-53", 1 ],
					"order" : 0,
					"source" : [ "obj-54", 0 ]
				}

			}
, 			{
				"patchline" : 				{
					"destination" : [ "obj-53", 0 ],
					"order" : 1,
					"source" : [ "obj-54", 0 ]
				}

			}
, 			{
				"patchline" : 				{
					"destination" : [ "obj-55", 0 ],
					"source" : [ "obj-6", 0 ]
				}

			}
, 			{
				"patchline" : 				{
					"destination" : [ "obj-54", 0 ],
					"source" : [ "obj-62", 0 ]
				}

			}
 ],
		"parameters" : 		{
			"obj-54" : [ "live.gain~[1]", "live.gain~", 0 ],
			"parameterbanks" : 			{
				"0" : 				{
					"index" : 0,
					"name" : "",
					"parameters" : [ "-", "-", "-", "-", "-", "-", "-", "-" ]
				}

			}
,
			"inherited_shortname" : 1
		}
,
		"dependency_cache" : [  ],
		"autosave" : 0
	}

}
