{
	"patcher" : 	{
		"fileversion" : 1,
		"appversion" : 		{
			"major" : 8,
			"minor" : 5,
			"revision" : 2,
			"architecture" : "x64",
			"modernui" : 1
		}
,
		"classnamespace" : "box",
		"rect" : [ -63.0, -953.0, 1440.0, 849.0 ],
		"bglocked" : 0,
		"openinpresentation" : 0,
		"default_fontsize" : 12.0,
		"default_fontface" : 0,
		"default_fontname" : "Arial",
		"gridonopen" : 1,
		"gridsize" : [ 15.0, 15.0 ],
		"gridsnaponopen" : 1,
		"objectsnaponopen" : 1,
		"statusbarvisible" : 2,
		"toolbarvisible" : 1,
		"lefttoolbarpinned" : 0,
		"toptoolbarpinned" : 0,
		"righttoolbarpinned" : 0,
		"bottomtoolbarpinned" : 0,
		"toolbars_unpinned_last_save" : 0,
		"tallnewobj" : 0,
		"boxanimatetime" : 200,
		"enablehscroll" : 1,
		"enablevscroll" : 1,
		"devicewidth" : 0.0,
		"description" : "",
		"digest" : "",
		"tags" : "",
		"style" : "",
		"subpatcher_template" : "",
		"assistshowspatchername" : 0,
		"boxes" : [ 			{
				"box" : 				{
					"fontsize" : 16.0,
					"id" : "obj-37",
					"maxclass" : "comment",
					"numinlets" : 1,
					"numoutlets" : 0,
					"patching_rect" : [ 821.0, 37.0, 379.0, 24.0 ],
					"text" : "Modal Synthesis of a Linear Circular Membrane"
				}

			}
, 			{
				"box" : 				{
					"id" : "obj-35",
					"maxclass" : "message",
					"numinlets" : 2,
					"numoutlets" : 1,
					"outlettype" : [ "" ],
					"patching_rect" : [ 458.500006318092346, 264.25, 68.0, 22.0 ],
					"text" : "nmodes $1"
				}

			}
, 			{
				"box" : 				{
					"id" : "obj-33",
					"maxclass" : "newobj",
					"numinlets" : 1,
					"numoutlets" : 1,
					"outlettype" : [ "" ],
					"patching_rect" : [ 458.500006318092346, 207.25, 54.0, 22.0 ],
					"text" : "deferlow"
				}

			}
, 			{
				"box" : 				{
					"id" : "obj-27",
					"maxclass" : "newobj",
					"numinlets" : 1,
					"numoutlets" : 1,
					"outlettype" : [ "signal" ],
					"patcher" : 					{
						"fileversion" : 1,
						"appversion" : 						{
							"major" : 8,
							"minor" : 5,
							"revision" : 2,
							"architecture" : "x64",
							"modernui" : 1
						}
,
						"classnamespace" : "box",
						"rect" : [ 0.0, 0.0, 640.0, 480.0 ],
						"bglocked" : 0,
						"openinpresentation" : 0,
						"default_fontsize" : 12.0,
						"default_fontface" : 0,
						"default_fontname" : "Arial",
						"gridonopen" : 1,
						"gridsize" : [ 15.0, 15.0 ],
						"gridsnaponopen" : 1,
						"objectsnaponopen" : 1,
						"statusbarvisible" : 2,
						"toolbarvisible" : 1,
						"lefttoolbarpinned" : 0,
						"toptoolbarpinned" : 0,
						"righttoolbarpinned" : 0,
						"bottomtoolbarpinned" : 0,
						"toolbars_unpinned_last_save" : 0,
						"tallnewobj" : 0,
						"boxanimatetime" : 200,
						"enablehscroll" : 1,
						"enablevscroll" : 1,
						"devicewidth" : 0.0,
						"description" : "",
						"digest" : "",
						"tags" : "",
						"style" : "",
						"subpatcher_template" : "",
						"assistshowspatchername" : 0,
						"boxes" : [ 							{
								"box" : 								{
									"id" : "obj-63",
									"maxclass" : "newobj",
									"numinlets" : 2,
									"numoutlets" : 1,
									"outlettype" : [ "float" ],
									"patching_rect" : [ 209.5, 258.779296875, 40.0, 22.0 ],
									"text" : "* 0.01"
								}

							}
, 							{
								"box" : 								{
									"id" : "obj-52",
									"maxclass" : "newobj",
									"numinlets" : 2,
									"numoutlets" : 1,
									"outlettype" : [ "int" ],
									"patching_rect" : [ 209.5, 218.779296875, 73.0, 22.0 ],
									"text" : "random 200"
								}

							}
, 							{
								"box" : 								{
									"id" : "obj-51",
									"maxclass" : "message",
									"numinlets" : 2,
									"numoutlets" : 1,
									"outlettype" : [ "" ],
									"patching_rect" : [ 187.5, 139.779296875, 29.5, 22.0 ],
									"text" : "150"
								}

							}
, 							{
								"box" : 								{
									"id" : "obj-38",
									"maxclass" : "message",
									"numinlets" : 2,
									"numoutlets" : 1,
									"outlettype" : [ "" ],
									"patching_rect" : [ 225.5, 139.779296875, 29.5, 22.0 ],
									"text" : "300"
								}

							}
, 							{
								"box" : 								{
									"id" : "obj-36",
									"maxclass" : "newobj",
									"numinlets" : 3,
									"numoutlets" : 3,
									"outlettype" : [ "bang", "bang", "" ],
									"patching_rect" : [ 187.5, 106.779296875, 44.0, 22.0 ],
									"text" : "sel 0 1"
								}

							}
, 							{
								"box" : 								{
									"id" : "obj-35",
									"maxclass" : "newobj",
									"numinlets" : 2,
									"numoutlets" : 1,
									"outlettype" : [ "int" ],
									"patching_rect" : [ 122.5, 139.779296875, 44.0, 22.0 ],
									"text" : "decide"
								}

							}
, 							{
								"box" : 								{
									"id" : "obj-15",
									"maxclass" : "newobj",
									"numinlets" : 1,
									"numoutlets" : 2,
									"outlettype" : [ "signal", "bang" ],
									"patching_rect" : [ 51.5, 200.779296875, 82.0, 22.0 ],
									"text" : "play~ impulse"
								}

							}
, 							{
								"box" : 								{
									"format" : 6,
									"id" : "obj-5",
									"maxclass" : "flonum",
									"numinlets" : 1,
									"numoutlets" : 2,
									"outlettype" : [ "", "bang" ],
									"parameter_enable" : 0,
									"patching_rect" : [ 74.5, 240.779296875, 50.0, 22.0 ]
								}

							}
, 							{
								"box" : 								{
									"id" : "obj-1",
									"maxclass" : "newobj",
									"numinlets" : 2,
									"numoutlets" : 1,
									"outlettype" : [ "signal" ],
									"patching_rect" : [ 51.5, 274.779296875, 34.0, 22.0 ],
									"text" : "*~ 2."
								}

							}
, 							{
								"box" : 								{
									"fontname" : "Arial",
									"fontsize" : 12.0,
									"id" : "obj-7",
									"maxclass" : "newobj",
									"numinlets" : 2,
									"numoutlets" : 1,
									"outlettype" : [ "bang" ],
									"patching_rect" : [ 50.0, 124.029296875, 63.0, 22.0 ],
									"text" : "metro 500"
								}

							}
, 							{
								"box" : 								{
									"id" : "obj-16",
									"maxclass" : "message",
									"numinlets" : 2,
									"numoutlets" : 1,
									"outlettype" : [ "" ],
									"patching_rect" : [ 51.5, 170.779296875, 32.0, 22.0 ],
									"text" : "start"
								}

							}
, 							{
								"box" : 								{
									"comment" : "",
									"id" : "obj-4",
									"index" : 1,
									"maxclass" : "inlet",
									"numinlets" : 0,
									"numoutlets" : 1,
									"outlettype" : [ "int" ],
									"patching_rect" : [ 50.0, 39.999999874999986, 30.0, 30.0 ]
								}

							}
, 							{
								"box" : 								{
									"comment" : "",
									"id" : "obj-21",
									"index" : 1,
									"maxclass" : "outlet",
									"numinlets" : 1,
									"numoutlets" : 0,
									"patching_rect" : [ 51.5, 356.779296875, 30.0, 30.0 ]
								}

							}
 ],
						"lines" : [ 							{
								"patchline" : 								{
									"destination" : [ "obj-21", 0 ],
									"source" : [ "obj-1", 0 ]
								}

							}
, 							{
								"patchline" : 								{
									"destination" : [ "obj-1", 0 ],
									"source" : [ "obj-15", 0 ]
								}

							}
, 							{
								"patchline" : 								{
									"destination" : [ "obj-15", 0 ],
									"source" : [ "obj-16", 0 ]
								}

							}
, 							{
								"patchline" : 								{
									"destination" : [ "obj-36", 0 ],
									"source" : [ "obj-35", 0 ]
								}

							}
, 							{
								"patchline" : 								{
									"destination" : [ "obj-38", 0 ],
									"source" : [ "obj-36", 1 ]
								}

							}
, 							{
								"patchline" : 								{
									"destination" : [ "obj-51", 0 ],
									"source" : [ "obj-36", 0 ]
								}

							}
, 							{
								"patchline" : 								{
									"destination" : [ "obj-7", 1 ],
									"source" : [ "obj-38", 0 ]
								}

							}
, 							{
								"patchline" : 								{
									"destination" : [ "obj-7", 0 ],
									"source" : [ "obj-4", 0 ]
								}

							}
, 							{
								"patchline" : 								{
									"destination" : [ "obj-1", 1 ],
									"source" : [ "obj-5", 0 ]
								}

							}
, 							{
								"patchline" : 								{
									"destination" : [ "obj-7", 1 ],
									"source" : [ "obj-51", 0 ]
								}

							}
, 							{
								"patchline" : 								{
									"destination" : [ "obj-63", 0 ],
									"source" : [ "obj-52", 0 ]
								}

							}
, 							{
								"patchline" : 								{
									"destination" : [ "obj-5", 0 ],
									"source" : [ "obj-63", 0 ]
								}

							}
, 							{
								"patchline" : 								{
									"destination" : [ "obj-16", 0 ],
									"order" : 2,
									"source" : [ "obj-7", 0 ]
								}

							}
, 							{
								"patchline" : 								{
									"destination" : [ "obj-35", 0 ],
									"order" : 1,
									"source" : [ "obj-7", 0 ]
								}

							}
, 							{
								"patchline" : 								{
									"destination" : [ "obj-52", 0 ],
									"order" : 0,
									"source" : [ "obj-7", 0 ]
								}

							}
 ]
					}
,
					"patching_rect" : [ 61.0, 239.220702999999986, 55.0, 22.0 ],
					"saved_object_attributes" : 					{
						"description" : "",
						"digest" : "",
						"globalpatchername" : "",
						"tags" : ""
					}
,
					"text" : "p Exciter"
				}

			}
, 			{
				"box" : 				{
					"id" : "obj-74",
					"maxclass" : "newobj",
					"numinlets" : 1,
					"numoutlets" : 1,
					"outlettype" : [ "" ],
					"patching_rect" : [ 575.000006318092346, 55.0, 54.0, 22.0 ],
					"text" : "deferlow"
				}

			}
, 			{
				"box" : 				{
					"id" : "obj-73",
					"maxclass" : "newobj",
					"numinlets" : 1,
					"numoutlets" : 1,
					"outlettype" : [ "" ],
					"patching_rect" : [ 588.0, 28.0, 60.0, 22.0 ],
					"text" : "loadmess"
				}

			}
, 			{
				"box" : 				{
					"bubblesize" : 16,
					"id" : "obj-72",
					"maxclass" : "preset",
					"numinlets" : 1,
					"numoutlets" : 5,
					"outlettype" : [ "preset", "int", "preset", "int", "" ],
					"patching_rect" : [ 568.000006318092346, 79.0, 225.0, 31.0 ],
					"preset_data" : [ 						{
							"number" : 1,
							"data" : [ 5, "<invalid>", "live.gain~", "float", -8.573345184326172, 5, "obj-9", "toggle", "int", 1, 5, "<invalid>", "flonum", "float", 0.720000028610229, 5, "obj-61", "flonum", "float", 2.039999961853027, 5, "obj-67", "flonum", "float", 3000.0, 5, "obj-70", "flonum", "float", 0.579999983310699, 5, "obj-23", "flonum", "float", 0.428000003099442, 5, "obj-43", "flonum", "float", 0.016000000759959, 5, "obj-6", "flonum", "float", 0.18299999833107, 5, "obj-29", "flonum", "float", 0.501999974250793, 5, "<invalid>", "flonum", "float", 0.0 ]
						}
, 						{
							"number" : 2,
							"data" : [ 5, "<invalid>", "live.gain~", "float", -8.573345184326172, 5, "obj-9", "toggle", "int", 1, 5, "obj-61", "flonum", "float", 1.210000038146973, 5, "obj-67", "flonum", "float", 6000.0, 5, "obj-70", "flonum", "float", 2.130000114440918, 5, "obj-23", "flonum", "float", 0.300000011920929, 5, "obj-43", "flonum", "float", 0.225999996066093, 5, "obj-6", "flonum", "float", 0.324999988079071, 5, "obj-29", "flonum", "float", 0.501999974250793 ]
						}
, 						{
							"number" : 3,
							"data" : [ 5, "<invalid>", "live.gain~", "float", -13.960921287536621, 5, "obj-9", "toggle", "int", 1, 5, "obj-61", "flonum", "float", 1.0, 5, "obj-67", "flonum", "float", 4882.0, 5, "obj-70", "flonum", "float", 5.5, 5, "obj-23", "flonum", "float", 0.202000007033348, 5, "obj-43", "flonum", "float", 1.090000033378601, 5, "obj-6", "flonum", "float", 0.519999980926514, 5, "obj-29", "flonum", "float", 0.439999997615814 ]
						}
, 						{
							"number" : 4,
							"data" : [ 5, "<invalid>", "live.gain~", "float", -8.573345184326172, 5, "obj-9", "toggle", "int", 1, 5, "obj-61", "flonum", "float", 3.829999923706055, 5, "obj-67", "flonum", "float", 6000.0, 5, "obj-70", "flonum", "float", 5.5, 5, "obj-23", "flonum", "float", 0.300000011920929, 5, "obj-43", "flonum", "float", 0.092000000178814, 5, "obj-6", "flonum", "float", 0.324999988079071, 5, "obj-29", "flonum", "float", 0.501999974250793 ]
						}
, 						{
							"number" : 5,
							"data" : [ 5, "<invalid>", "live.gain~", "float", -8.573345184326172, 5, "obj-9", "toggle", "int", 1, 5, "obj-61", "flonum", "float", 1.700000047683716, 5, "obj-67", "flonum", "float", 3163.0, 5, "obj-70", "flonum", "float", 2.0, 5, "obj-23", "flonum", "float", 0.140000000596046, 5, "obj-43", "flonum", "float", 0.092000000178814, 5, "obj-6", "flonum", "float", 0.170000001788139, 5, "obj-29", "flonum", "float", 0.899999976158142 ]
						}
, 						{
							"number" : 6,
							"data" : [ 5, "<invalid>", "live.gain~", "float", -17.750364303588867, 5, "obj-9", "toggle", "int", 1, 5, "<invalid>", "flonum", "float", 0.349999994039536, 5, "obj-61", "flonum", "float", 1.700000047683716, 5, "obj-67", "flonum", "float", 4882.0, 5, "obj-70", "flonum", "float", 5.5, 5, "obj-23", "flonum", "float", 0.257999986410141, 5, "obj-43", "flonum", "float", 0.092000000178814, 5, "obj-6", "flonum", "float", 0.349999994039536, 5, "obj-29", "flonum", "float", 0.73199999332428 ]
						}
, 						{
							"number" : 7,
							"data" : [ 5, "<invalid>", "live.gain~", "float", -5.382327079772949, 5, "obj-9", "toggle", "int", 1, 5, "obj-61", "flonum", "float", 1.700000047683716, 5, "obj-67", "flonum", "float", 4299.0, 5, "obj-70", "flonum", "float", 2.5, 5, "obj-23", "flonum", "float", 0.46900001168251, 5, "obj-43", "flonum", "float", 0.0489999987185, 5, "obj-6", "flonum", "float", 0.349999994039536, 5, "obj-29", "flonum", "float", 0.73199999332428 ]
						}
, 						{
							"number" : 8,
							"data" : [ 5, "<invalid>", "live.gain~", "float", -7.32677173614502, 5, "obj-9", "toggle", "int", 1, 5, "obj-61", "flonum", "float", 7.800000190734863, 5, "obj-67", "flonum", "float", 3000.0, 5, "obj-70", "flonum", "float", 4.599999904632568, 5, "obj-23", "flonum", "float", 0.230000004172325, 5, "obj-43", "flonum", "float", 0.004999999888241, 5, "obj-6", "flonum", "float", 0.860000014305115, 5, "obj-29", "flonum", "float", 0.389999985694885 ]
						}
, 						{
							"number" : 9,
							"data" : [ 5, "<invalid>", "live.gain~", "float", -8.573345184326172, 5, "obj-9", "toggle", "int", 1, 5, "<invalid>", "flonum", "float", 0.200000002980232, 5, "obj-61", "flonum", "float", 1.700000047683716, 5, "obj-67", "flonum", "float", 4882.0, 5, "obj-70", "flonum", "float", 5.5, 5, "obj-23", "flonum", "float", 0.257999986410141, 5, "obj-43", "flonum", "float", 0.092000000178814, 5, "obj-6", "flonum", "float", 0.170000001788139, 5, "obj-29", "flonum", "float", 0.899999976158142, 5, "<invalid>", "flonum", "float", 0.0 ]
						}
, 						{
							"number" : 10,
							"data" : [ 5, "<invalid>", "live.gain~", "float", -8.573345184326172, 5, "obj-9", "toggle", "int", 1, 5, "obj-61", "flonum", "float", 2.0, 5, "obj-67", "flonum", "float", 1000.0, 5, "obj-70", "flonum", "float", 2.0, 5, "obj-23", "flonum", "float", 0.256999999284744, 5, "obj-43", "flonum", "float", 0.021999999880791, 5, "obj-6", "flonum", "float", 0.200000002980232, 5, "obj-29", "flonum", "float", 0.639999985694885 ]
						}
, 						{
							"number" : 11,
							"data" : [ 5, "<invalid>", "live.gain~", "float", -14.958880424499512, 5, "obj-9", "toggle", "int", 1, 5, "obj-61", "flonum", "float", 2.0, 5, "obj-67", "flonum", "float", 1000.0, 5, "obj-70", "flonum", "float", 2.940000057220459, 5, "obj-23", "flonum", "float", 0.370000004768372, 5, "obj-43", "flonum", "float", 2.970000028610229, 5, "obj-6", "flonum", "float", 0.469999998807907, 5, "obj-29", "flonum", "float", 0.469999998807907 ]
						}
 ]
				}

			}
, 			{
				"box" : 				{
					"id" : "obj-68",
					"maxclass" : "newobj",
					"numinlets" : 2,
					"numoutlets" : 1,
					"outlettype" : [ "signal" ],
					"patching_rect" : [ 60.0, 325.0, 34.0, 22.0 ],
					"text" : "*~ 4."
				}

			}
, 			{
				"box" : 				{
					"format" : 6,
					"id" : "obj-29",
					"maxclass" : "flonum",
					"maximum" : 1.0,
					"minimum" : 0.0,
					"numinlets" : 1,
					"numoutlets" : 2,
					"outlettype" : [ "", "bang" ],
					"parameter_enable" : 0,
					"patching_rect" : [ 1144.500006318092346, 185.25, 72.0, 22.0 ]
				}

			}
, 			{
				"box" : 				{
					"id" : "obj-32",
					"maxclass" : "message",
					"numinlets" : 2,
					"numoutlets" : 1,
					"outlettype" : [ "" ],
					"patching_rect" : [ 1144.500006318092346, 240.25, 64.0, 22.0 ],
					"text" : "posOut $1"
				}

			}
, 			{
				"box" : 				{
					"id" : "obj-26",
					"maxclass" : "message",
					"numinlets" : 2,
					"numoutlets" : 1,
					"outlettype" : [ "" ],
					"patching_rect" : [ 197.0, 546.0, 29.5, 22.0 ],
					"text" : "-90"
				}

			}
, 			{
				"box" : 				{
					"id" : "obj-18",
					"maxclass" : "textbutton",
					"numinlets" : 1,
					"numoutlets" : 3,
					"outlettype" : [ "", "", "int" ],
					"parameter_enable" : 0,
					"patching_rect" : [ 197.0, 497.0, 72.0, 42.0 ],
					"text" : "MUTE",
					"texton" : "MUTE"
				}

			}
, 			{
				"box" : 				{
					"format" : 6,
					"id" : "obj-6",
					"maxclass" : "flonum",
					"maximum" : 1.0,
					"minimum" : 0.0,
					"numinlets" : 1,
					"numoutlets" : 2,
					"outlettype" : [ "", "bang" ],
					"parameter_enable" : 0,
					"patching_rect" : [ 1053.500006318092346, 189.25, 72.0, 22.0 ]
				}

			}
, 			{
				"box" : 				{
					"id" : "obj-12",
					"maxclass" : "message",
					"numinlets" : 2,
					"numoutlets" : 1,
					"outlettype" : [ "" ],
					"patching_rect" : [ 1053.500006318092346, 244.25, 55.0, 22.0 ],
					"text" : "posIn $1"
				}

			}
, 			{
				"box" : 				{
					"fontsize" : 14.0,
					"id" : "obj-60",
					"maxclass" : "comment",
					"numinlets" : 1,
					"numoutlets" : 0,
					"patching_rect" : [ 192.0, 431.0, 175.0, 22.0 ],
					"text" : "Modal Resonator"
				}

			}
, 			{
				"box" : 				{
					"id" : "obj-20",
					"maxclass" : "newobj",
					"numinlets" : 1,
					"numoutlets" : 1,
					"outlettype" : [ "signal" ],
					"patcher" : 					{
						"fileversion" : 1,
						"appversion" : 						{
							"major" : 8,
							"minor" : 5,
							"revision" : 2,
							"architecture" : "x64",
							"modernui" : 1
						}
,
						"classnamespace" : "dsp.gen",
						"rect" : [ 34.0, 87.0, 1099.0, 849.0 ],
						"bglocked" : 0,
						"openinpresentation" : 0,
						"default_fontsize" : 12.0,
						"default_fontface" : 0,
						"default_fontname" : "Arial",
						"gridonopen" : 1,
						"gridsize" : [ 15.0, 15.0 ],
						"gridsnaponopen" : 1,
						"objectsnaponopen" : 1,
						"statusbarvisible" : 2,
						"toolbarvisible" : 1,
						"lefttoolbarpinned" : 0,
						"toptoolbarpinned" : 0,
						"righttoolbarpinned" : 0,
						"bottomtoolbarpinned" : 0,
						"toolbars_unpinned_last_save" : 0,
						"tallnewobj" : 0,
						"boxanimatetime" : 200,
						"enablehscroll" : 1,
						"enablevscroll" : 1,
						"devicewidth" : 0.0,
						"description" : "",
						"digest" : "",
						"tags" : "",
						"style" : "",
						"subpatcher_template" : "",
						"assistshowspatchername" : 0,
						"boxes" : [ 							{
								"box" : 								{
									"code" : "Buffer freqs(\"freqs\");\r\nBuffer Win(\"Win\");\r\nBuffer Wout(\"Wout\");\r\nBuffer A1(\"A1\");\r\nBuffer A2(\"A2\");\r\nBuffer B1(\"B1\");\r\n\r\nParam nmodes(150);\r\n\t\r\n// use a Data to store the previous 'y' values for each resonator\r\nData hy1(150);\r\nData hy2(150);\r\n\r\n//------------------------------------------------\r\n// Process\r\nx = in1;\r\nvDispl = 0;\r\ngain = 1/sqrt(nmodes);\r\n\r\nfor (i=0; i<nmodes; i+= 1) \r\n{\r\n\tb1 = peek(B1, i);\r\n\ta1 = peek(A1, i);\r\n\ta2 = peek(A2, i);\r\n\tvWin = peek(Win, i);\r\n\tvWout = peek(Wout, i);\r\n\t\r\n\t// read this resonator's data:\r\n\ty2 = peek(hy2, i);\r\n\ty1 = peek(hy1, i);\r\n\t\t\t\r\n\t// compute next y:\r\n\ty = b1 * vWin * x + a1*y1 + a2*y2;\r\n\t\r\n\t// update this resonator's history\r\n\tpoke(hy2, y1, i);\r\n\tpoke(hy1, y, i);\r\n\r\n\t// mix into output:\r\n\tvDispl += y * vWout;\r\n}\r\n\r\nout1 = vDispl * gain;\r\n",
									"fontface" : 0,
									"fontname" : "<Monospaced>",
									"fontsize" : 12.0,
									"id" : "obj-2",
									"maxclass" : "codebox",
									"numinlets" : 1,
									"numoutlets" : 1,
									"outlettype" : [ "" ],
									"patching_rect" : [ 29.0, 42.0, 822.0, 676.0 ]
								}

							}
, 							{
								"box" : 								{
									"id" : "obj-1",
									"maxclass" : "newobj",
									"numinlets" : 0,
									"numoutlets" : 1,
									"outlettype" : [ "" ],
									"patching_rect" : [ 15.0, 11.0, 30.0, 22.0 ],
									"text" : "in 1"
								}

							}
, 							{
								"box" : 								{
									"id" : "obj-4",
									"maxclass" : "newobj",
									"numinlets" : 1,
									"numoutlets" : 0,
									"patching_rect" : [ 15.0, 719.0, 37.0, 22.0 ],
									"text" : "out 1"
								}

							}
 ],
						"lines" : [ 							{
								"patchline" : 								{
									"destination" : [ "obj-2", 0 ],
									"source" : [ "obj-1", 0 ]
								}

							}
, 							{
								"patchline" : 								{
									"destination" : [ "obj-4", 0 ],
									"source" : [ "obj-2", 0 ]
								}

							}
 ],
						"editing_bgcolor" : [ 0.9, 0.9, 0.9, 1.0 ]
					}
,
					"patching_rect" : [ 61.0, 431.0, 123.0, 22.0 ],
					"text" : "gen~"
				}

			}
, 			{
				"box" : 				{
					"bgcolor" : [ 1.0, 0.247058823529412, 0.196078431372549, 1.0 ],
					"bgcolor2" : [ 0.2, 0.2, 0.2, 1.0 ],
					"bgfillcolor_angle" : 270.0,
					"bgfillcolor_autogradient" : 0.0,
					"bgfillcolor_color" : [ 1.0, 0.247058823529412, 0.196078431372549, 1.0 ],
					"bgfillcolor_color1" : [ 1.0, 0.247058823529412, 0.196078431372549, 1.0 ],
					"bgfillcolor_color2" : [ 0.2, 0.2, 0.2, 1.0 ],
					"bgfillcolor_proportion" : 0.5,
					"bgfillcolor_type" : "gradient",
					"gradient" : 1,
					"id" : "obj-30",
					"maxclass" : "message",
					"numinlets" : 2,
					"numoutlets" : 1,
					"outlettype" : [ "" ],
					"patching_rect" : [ 120.0, 379.0, 50.0, 22.0 ],
					"text" : "reset"
				}

			}
, 			{
				"box" : 				{
					"id" : "obj-64",
					"linecount" : 4,
					"maxclass" : "comment",
					"numinlets" : 1,
					"numoutlets" : 0,
					"patching_rect" : [ 586.500006318092346, 504.0, 154.0, 60.0 ],
					"text" : "filterbank coefficients andmodal weights are stored in these buffers and read by the gen~ object"
				}

			}
, 			{
				"box" : 				{
					"id" : "obj-62",
					"linecount" : 2,
					"maxclass" : "comment",
					"numinlets" : 1,
					"numoutlets" : 0,
					"patching_rect" : [ 458.500006318092346, 152.25, 150.0, 33.0 ],
					"text" : "number of modes (do not change this @ real-time)"
				}

			}
, 			{
				"box" : 				{
					"id" : "obj-59",
					"maxclass" : "newobj",
					"numinlets" : 1,
					"numoutlets" : 1,
					"outlettype" : [ "" ],
					"patching_rect" : [ 458.500006318092346, 185.25, 83.0, 22.0 ],
					"text" : "loadmess 150"
				}

			}
, 			{
				"box" : 				{
					"id" : "obj-55",
					"linecount" : 3,
					"maxclass" : "comment",
					"numinlets" : 1,
					"numoutlets" : 0,
					"patching_rect" : [ 376.500006318092346, 376.0, 150.0, 47.0 ],
					"text" : "This js script computes the filters coefficients and modal weights"
				}

			}
, 			{
				"box" : 				{
					"id" : "obj-48",
					"maxclass" : "newobj",
					"numinlets" : 2,
					"numoutlets" : 1,
					"outlettype" : [ "float" ],
					"patching_rect" : [ 869.000006318092346, 213.25, 47.0, 22.0 ],
					"text" : "* 0.001"
				}

			}
, 			{
				"box" : 				{
					"format" : 6,
					"id" : "obj-43",
					"maxclass" : "flonum",
					"minimum" : 0.0,
					"numinlets" : 1,
					"numoutlets" : 2,
					"outlettype" : [ "", "bang" ],
					"parameter_enable" : 0,
					"patching_rect" : [ 961.500006318092346, 185.25, 72.0, 22.0 ]
				}

			}
, 			{
				"box" : 				{
					"id" : "obj-46",
					"maxclass" : "message",
					"numinlets" : 2,
					"numoutlets" : 1,
					"outlettype" : [ "" ],
					"patching_rect" : [ 961.500006318092346, 240.25, 62.0, 22.0 ],
					"text" : "damp2 $1"
				}

			}
, 			{
				"box" : 				{
					"id" : "obj-42",
					"maxclass" : "comment",
					"numinlets" : 1,
					"numoutlets" : 0,
					"patching_rect" : [ 805.000006318092346, 320.0, 150.0, 20.0 ],
					"text" : "In Weights"
				}

			}
, 			{
				"box" : 				{
					"id" : "obj-41",
					"maxclass" : "comment",
					"numinlets" : 1,
					"numoutlets" : 0,
					"patching_rect" : [ 1040.500006318092346, 320.0, 150.0, 20.0 ],
					"text" : "Out Weights"
				}

			}
, 			{
				"box" : 				{
					"id" : "obj-39",
					"maxclass" : "comment",
					"numinlets" : 1,
					"numoutlets" : 0,
					"patching_rect" : [ 807.500006318092346, 510.5, 150.0, 20.0 ],
					"text" : "Frequencies"
				}

			}
, 			{
				"box" : 				{
					"allowdrag" : 0,
					"buffername" : "freqs",
					"id" : "obj-34",
					"labels" : 0,
					"maxclass" : "waveform~",
					"norulerclick" : 0,
					"numinlets" : 5,
					"numoutlets" : 6,
					"outlettype" : [ "float", "float", "float", "float", "list", "" ],
					"patching_rect" : [ 811.000006318092346, 539.0, 290.5, 176.0 ],
					"ruler" : 0,
					"selectioncolor" : [ 0.929411764705882, 0.929411764705882, 0.352941176470588, 0.0 ],
					"setunit" : 1,
					"vticks" : 0
				}

			}
, 			{
				"box" : 				{
					"allowdrag" : 0,
					"buffername" : "Wout",
					"id" : "obj-17",
					"labels" : 0,
					"maxclass" : "waveform~",
					"norulerclick" : 0,
					"numinlets" : 5,
					"numoutlets" : 6,
					"outlettype" : [ "float", "float", "float", "float", "list", "" ],
					"patching_rect" : [ 1040.500006318092346, 339.5, 225.5, 140.5 ],
					"ruler" : 0,
					"selectioncolor" : [ 0.929411764705882, 0.929411764705882, 0.352941176470588, 0.0 ],
					"setunit" : 1,
					"vticks" : 0
				}

			}
, 			{
				"box" : 				{
					"allowdrag" : 0,
					"buffername" : "Win",
					"id" : "obj-28",
					"labels" : 0,
					"maxclass" : "waveform~",
					"norulerclick" : 0,
					"numinlets" : 5,
					"numoutlets" : 6,
					"outlettype" : [ "float", "float", "float", "float", "list", "" ],
					"patching_rect" : [ 805.000006318092346, 339.5, 218.5, 140.5 ],
					"ruler" : 0,
					"selectioncolor" : [ 0.929411764705882, 0.929411764705882, 0.352941176470588, 0.0 ],
					"setunit" : 1,
					"vticks" : 0
				}

			}
, 			{
				"box" : 				{
					"format" : 6,
					"id" : "obj-23",
					"maxclass" : "flonum",
					"minimum" : 0.1,
					"numinlets" : 1,
					"numoutlets" : 2,
					"outlettype" : [ "", "bang" ],
					"parameter_enable" : 0,
					"patching_rect" : [ 634.500006318092346, 185.25, 58.5, 22.0 ]
				}

			}
, 			{
				"box" : 				{
					"id" : "obj-25",
					"maxclass" : "message",
					"numinlets" : 2,
					"numoutlets" : 1,
					"outlettype" : [ "" ],
					"patching_rect" : [ 634.500006318092346, 236.25, 58.0, 22.0 ],
					"text" : "radius $1"
				}

			}
, 			{
				"box" : 				{
					"format" : 6,
					"id" : "obj-70",
					"maxclass" : "flonum",
					"minimum" : 0.0,
					"numinlets" : 1,
					"numoutlets" : 2,
					"outlettype" : [ "", "bang" ],
					"parameter_enable" : 0,
					"patching_rect" : [ 773.000006318092346, 185.25, 50.0, 22.0 ]
				}

			}
, 			{
				"box" : 				{
					"id" : "obj-71",
					"maxclass" : "message",
					"numinlets" : 2,
					"numoutlets" : 1,
					"outlettype" : [ "" ],
					"patching_rect" : [ 773.000006318092346, 241.25, 80.0, 22.0 ],
					"text" : "dispersion $1"
				}

			}
, 			{
				"box" : 				{
					"format" : 6,
					"id" : "obj-67",
					"maxclass" : "flonum",
					"maximum" : 10000.0,
					"minimum" : 100.0,
					"numinlets" : 1,
					"numoutlets" : 2,
					"outlettype" : [ "", "bang" ],
					"parameter_enable" : 0,
					"patching_rect" : [ 705.000006318092346, 185.25, 50.0, 22.0 ]
				}

			}
, 			{
				"box" : 				{
					"id" : "obj-69",
					"maxclass" : "message",
					"numinlets" : 2,
					"numoutlets" : 1,
					"outlettype" : [ "" ],
					"patching_rect" : [ 705.000006318092346, 241.25, 64.0, 22.0 ],
					"text" : "tension $1"
				}

			}
, 			{
				"box" : 				{
					"id" : "obj-66",
					"maxclass" : "newobj",
					"numinlets" : 1,
					"numoutlets" : 3,
					"outlettype" : [ "int", "int", "int" ],
					"patching_rect" : [ 458.500006318092346, 234.25, 40.0, 22.0 ],
					"text" : "t i i i"
				}

			}
, 			{
				"box" : 				{
					"format" : 6,
					"id" : "obj-61",
					"maxclass" : "flonum",
					"minimum" : 0.00001,
					"numinlets" : 1,
					"numoutlets" : 2,
					"outlettype" : [ "", "bang" ],
					"parameter_enable" : 0,
					"patching_rect" : [ 869.000006318092346, 185.25, 83.0, 22.0 ]
				}

			}
, 			{
				"box" : 				{
					"id" : "obj-57",
					"maxclass" : "message",
					"numinlets" : 2,
					"numoutlets" : 1,
					"outlettype" : [ "" ],
					"patching_rect" : [ 869.000006318092346, 240.25, 55.0, 22.0 ],
					"text" : "damp $1"
				}

			}
, 			{
				"box" : 				{
					"id" : "obj-49",
					"maxclass" : "message",
					"numinlets" : 2,
					"numoutlets" : 1,
					"outlettype" : [ "" ],
					"patching_rect" : [ 391.0, 264.25, 68.0, 22.0 ],
					"text" : "nmodes $1"
				}

			}
, 			{
				"box" : 				{
					"fontname" : "Arial",
					"fontsize" : 12.0,
					"id" : "obj-40",
					"maxclass" : "newobj",
					"numinlets" : 1,
					"numoutlets" : 2,
					"outlettype" : [ "float", "bang" ],
					"patching_rect" : [ 604.000006318092346, 347.5, 131.0, 22.0 ],
					"text" : "buffer~ A2 @samps 64"
				}

			}
, 			{
				"box" : 				{
					"fontname" : "Arial",
					"fontsize" : 12.0,
					"id" : "obj-44",
					"maxclass" : "newobj",
					"numinlets" : 1,
					"numoutlets" : 2,
					"outlettype" : [ "float", "bang" ],
					"patching_rect" : [ 604.000006318092346, 376.0, 131.0, 22.0 ],
					"text" : "buffer~ A1 @samps 64"
				}

			}
, 			{
				"box" : 				{
					"fontname" : "Arial",
					"fontsize" : 12.0,
					"id" : "obj-45",
					"maxclass" : "newobj",
					"numinlets" : 1,
					"numoutlets" : 2,
					"outlettype" : [ "float", "bang" ],
					"patching_rect" : [ 604.000006318092346, 403.5, 132.0, 22.0 ],
					"text" : "buffer~ B1 @samps 64"
				}

			}
, 			{
				"box" : 				{
					"fontname" : "Arial",
					"fontsize" : 12.0,
					"id" : "obj-50",
					"maxclass" : "newobj",
					"numinlets" : 1,
					"numoutlets" : 2,
					"outlettype" : [ "float", "bang" ],
					"patching_rect" : [ 604.000006318092346, 458.0, 145.0, 22.0 ],
					"text" : "buffer~ Wout @samps 64"
				}

			}
, 			{
				"box" : 				{
					"fontname" : "Arial",
					"fontsize" : 12.0,
					"id" : "obj-53",
					"maxclass" : "newobj",
					"numinlets" : 1,
					"numoutlets" : 2,
					"outlettype" : [ "float", "bang" ],
					"patching_rect" : [ 604.000006318092346, 432.0, 138.0, 22.0 ],
					"text" : "buffer~ Win @samps 64"
				}

			}
, 			{
				"box" : 				{
					"fontname" : "Arial",
					"fontsize" : 12.0,
					"id" : "obj-54",
					"maxclass" : "newobj",
					"numinlets" : 1,
					"numoutlets" : 2,
					"outlettype" : [ "float", "bang" ],
					"patching_rect" : [ 604.000006318092346, 320.0, 144.0, 22.0 ],
					"text" : "buffer~ freqs @samps 64"
				}

			}
, 			{
				"box" : 				{
					"id" : "obj-58",
					"maxclass" : "message",
					"numinlets" : 2,
					"numoutlets" : 1,
					"outlettype" : [ "" ],
					"patching_rect" : [ 534.000006318092346, 264.25, 91.0, 22.0 ],
					"text" : "sizeinsamps $1"
				}

			}
, 			{
				"box" : 				{
					"id" : "obj-19",
					"maxclass" : "button",
					"numinlets" : 1,
					"numoutlets" : 1,
					"outlettype" : [ "bang" ],
					"parameter_enable" : 0,
					"patching_rect" : [ 376.500006318092346, 319.0, 24.0, 24.0 ]
				}

			}
, 			{
				"box" : 				{
					"id" : "obj-13",
					"maxclass" : "newobj",
					"numinlets" : 1,
					"numoutlets" : 1,
					"outlettype" : [ "" ],
					"patching_rect" : [ 409.666670560836792, 347.5, 160.0, 22.0 ],
					"saved_object_attributes" : 					{
						"filename" : "computeMembraneModes",
						"parameter_enable" : 0
					}
,
					"text" : "js computeMembraneModes"
				}

			}
, 			{
				"box" : 				{
					"id" : "obj-31",
					"maxclass" : "newobj",
					"numinlets" : 3,
					"numoutlets" : 1,
					"outlettype" : [ "signal" ],
					"patching_rect" : [ 62.0, 570.0, 78.0, 22.0 ],
					"text" : "clip~ -0.8 0.8"
				}

			}
, 			{
				"box" : 				{
					"id" : "obj-24",
					"maxclass" : "live.scope~",
					"numinlets" : 2,
					"numoutlets" : 1,
					"outlettype" : [ "bang" ],
					"patching_rect" : [ 277.0, 486.5, 168.0, 157.0 ]
				}

			}
, 			{
				"box" : 				{
					"id" : "obj-9",
					"maxclass" : "toggle",
					"numinlets" : 1,
					"numoutlets" : 1,
					"outlettype" : [ "int" ],
					"parameter_enable" : 0,
					"patching_rect" : [ 61.0, 207.25, 24.0, 24.0 ]
				}

			}
, 			{
				"box" : 				{
					"id" : "obj-2",
					"maxclass" : "newobj",
					"numinlets" : 1,
					"numoutlets" : 1,
					"outlettype" : [ "bang" ],
					"patching_rect" : [ 239.0, 18.0, 58.0, 22.0 ],
					"text" : "loadbang"
				}

			}
, 			{
				"box" : 				{
					"buffername" : "impulse",
					"clipdraw" : 1,
					"id" : "obj-14",
					"labels" : 0,
					"maxclass" : "waveform~",
					"numinlets" : 5,
					"numoutlets" : 6,
					"outlettype" : [ "float", "float", "float", "float", "list", "" ],
					"patching_rect" : [ 44.5, 56.5, 144.0, 112.0 ],
					"ruler" : 0,
					"setmode" : 4,
					"voffset" : 1.0,
					"vzoom" : 0.5
				}

			}
, 			{
				"box" : 				{
					"fontname" : "Arial",
					"fontsize" : 13.0,
					"id" : "obj-8",
					"maxclass" : "message",
					"numinlets" : 2,
					"numoutlets" : 1,
					"outlettype" : [ "" ],
					"patching_rect" : [ 235.0, 109.0, 309.0, 23.0 ],
					"text" : "fill 1, apply triangle half, apply gain -1, apply offset 1"
				}

			}
, 			{
				"box" : 				{
					"fontname" : "Arial",
					"fontsize" : 13.0,
					"id" : "obj-22",
					"maxclass" : "message",
					"numinlets" : 2,
					"numoutlets" : 1,
					"outlettype" : [ "" ],
					"patching_rect" : [ 239.0, 79.0, 231.0, 23.0 ],
					"text" : "sizeinsamps 512, fill 1, apply hamming"
				}

			}
, 			{
				"box" : 				{
					"fontname" : "Arial",
					"fontsize" : 13.0,
					"id" : "obj-10",
					"maxclass" : "message",
					"numinlets" : 2,
					"numoutlets" : 1,
					"outlettype" : [ "" ],
					"patching_rect" : [ 239.0, 51.0, 220.0, 23.0 ],
					"text" : "sizeinsamps 512, fill 1, apply triangle"
				}

			}
, 			{
				"box" : 				{
					"fontname" : "Arial",
					"fontsize" : 13.0,
					"id" : "obj-11",
					"maxclass" : "newobj",
					"numinlets" : 1,
					"numoutlets" : 2,
					"outlettype" : [ "float", "bang" ],
					"patching_rect" : [ 207.0, 147.0, 123.0, 23.0 ],
					"text" : "buffer~ impulse 100"
				}

			}
, 			{
				"box" : 				{
					"id" : "obj-56",
					"lastchannelcount" : 0,
					"maxclass" : "live.gain~",
					"numinlets" : 2,
					"numoutlets" : 5,
					"orientation" : 1,
					"outlettype" : [ "signal", "signal", "", "float", "list" ],
					"parameter_enable" : 1,
					"patching_rect" : [ 62.0, 497.0, 123.0, 47.0 ],
					"saved_attribute_attributes" : 					{
						"valueof" : 						{
							"parameter_initial" : [ 0.0 ],
							"parameter_longname" : "live.gain~",
							"parameter_mmax" : 6.0,
							"parameter_mmin" : -70.0,
							"parameter_shortname" : "live.gain~",
							"parameter_type" : 0,
							"parameter_unitstyle" : 4
						}

					}
,
					"varname" : "live.gain~"
				}

			}
, 			{
				"box" : 				{
					"id" : "obj-3",
					"maxclass" : "ezdac~",
					"numinlets" : 2,
					"numoutlets" : 0,
					"patching_rect" : [ 62.0, 615.0, 45.0, 45.0 ]
				}

			}
 ],
		"lines" : [ 			{
				"patchline" : 				{
					"destination" : [ "obj-11", 0 ],
					"source" : [ "obj-10", 0 ]
				}

			}
, 			{
				"patchline" : 				{
					"destination" : [ "obj-13", 0 ],
					"source" : [ "obj-12", 0 ]
				}

			}
, 			{
				"patchline" : 				{
					"destination" : [ "obj-26", 0 ],
					"source" : [ "obj-18", 0 ]
				}

			}
, 			{
				"patchline" : 				{
					"destination" : [ "obj-13", 0 ],
					"source" : [ "obj-19", 0 ]
				}

			}
, 			{
				"patchline" : 				{
					"destination" : [ "obj-10", 0 ],
					"source" : [ "obj-2", 0 ]
				}

			}
, 			{
				"patchline" : 				{
					"destination" : [ "obj-24", 0 ],
					"order" : 0,
					"source" : [ "obj-20", 0 ]
				}

			}
, 			{
				"patchline" : 				{
					"destination" : [ "obj-56", 0 ],
					"order" : 1,
					"source" : [ "obj-20", 0 ]
				}

			}
, 			{
				"patchline" : 				{
					"destination" : [ "obj-11", 0 ],
					"source" : [ "obj-22", 0 ]
				}

			}
, 			{
				"patchline" : 				{
					"destination" : [ "obj-25", 0 ],
					"source" : [ "obj-23", 0 ]
				}

			}
, 			{
				"patchline" : 				{
					"destination" : [ "obj-13", 0 ],
					"source" : [ "obj-25", 0 ]
				}

			}
, 			{
				"patchline" : 				{
					"destination" : [ "obj-56", 0 ],
					"source" : [ "obj-26", 0 ]
				}

			}
, 			{
				"patchline" : 				{
					"destination" : [ "obj-68", 0 ],
					"source" : [ "obj-27", 0 ]
				}

			}
, 			{
				"patchline" : 				{
					"destination" : [ "obj-32", 0 ],
					"source" : [ "obj-29", 0 ]
				}

			}
, 			{
				"patchline" : 				{
					"destination" : [ "obj-20", 0 ],
					"source" : [ "obj-30", 0 ]
				}

			}
, 			{
				"patchline" : 				{
					"destination" : [ "obj-3", 1 ],
					"order" : 0,
					"source" : [ "obj-31", 0 ]
				}

			}
, 			{
				"patchline" : 				{
					"destination" : [ "obj-3", 0 ],
					"order" : 1,
					"source" : [ "obj-31", 0 ]
				}

			}
, 			{
				"patchline" : 				{
					"destination" : [ "obj-13", 0 ],
					"source" : [ "obj-32", 0 ]
				}

			}
, 			{
				"patchline" : 				{
					"destination" : [ "obj-66", 0 ],
					"source" : [ "obj-33", 0 ]
				}

			}
, 			{
				"patchline" : 				{
					"destination" : [ "obj-13", 0 ],
					"source" : [ "obj-35", 0 ]
				}

			}
, 			{
				"patchline" : 				{
					"destination" : [ "obj-46", 0 ],
					"source" : [ "obj-43", 0 ]
				}

			}
, 			{
				"patchline" : 				{
					"destination" : [ "obj-13", 0 ],
					"source" : [ "obj-46", 0 ]
				}

			}
, 			{
				"patchline" : 				{
					"destination" : [ "obj-57", 0 ],
					"source" : [ "obj-48", 0 ]
				}

			}
, 			{
				"patchline" : 				{
					"destination" : [ "obj-20", 0 ],
					"source" : [ "obj-49", 0 ]
				}

			}
, 			{
				"patchline" : 				{
					"destination" : [ "obj-31", 0 ],
					"source" : [ "obj-56", 0 ]
				}

			}
, 			{
				"patchline" : 				{
					"destination" : [ "obj-13", 0 ],
					"source" : [ "obj-57", 0 ]
				}

			}
, 			{
				"patchline" : 				{
					"destination" : [ "obj-40", 0 ],
					"order" : 4,
					"source" : [ "obj-58", 0 ]
				}

			}
, 			{
				"patchline" : 				{
					"destination" : [ "obj-44", 0 ],
					"order" : 3,
					"source" : [ "obj-58", 0 ]
				}

			}
, 			{
				"patchline" : 				{
					"destination" : [ "obj-45", 0 ],
					"order" : 2,
					"source" : [ "obj-58", 0 ]
				}

			}
, 			{
				"patchline" : 				{
					"destination" : [ "obj-50", 0 ],
					"order" : 0,
					"source" : [ "obj-58", 0 ]
				}

			}
, 			{
				"patchline" : 				{
					"destination" : [ "obj-53", 0 ],
					"order" : 1,
					"source" : [ "obj-58", 0 ]
				}

			}
, 			{
				"patchline" : 				{
					"destination" : [ "obj-54", 0 ],
					"order" : 5,
					"source" : [ "obj-58", 0 ]
				}

			}
, 			{
				"patchline" : 				{
					"destination" : [ "obj-33", 0 ],
					"source" : [ "obj-59", 0 ]
				}

			}
, 			{
				"patchline" : 				{
					"destination" : [ "obj-12", 0 ],
					"source" : [ "obj-6", 0 ]
				}

			}
, 			{
				"patchline" : 				{
					"destination" : [ "obj-48", 0 ],
					"source" : [ "obj-61", 0 ]
				}

			}
, 			{
				"patchline" : 				{
					"destination" : [ "obj-35", 0 ],
					"source" : [ "obj-66", 1 ]
				}

			}
, 			{
				"patchline" : 				{
					"destination" : [ "obj-49", 0 ],
					"source" : [ "obj-66", 0 ]
				}

			}
, 			{
				"patchline" : 				{
					"destination" : [ "obj-58", 0 ],
					"source" : [ "obj-66", 2 ]
				}

			}
, 			{
				"patchline" : 				{
					"destination" : [ "obj-69", 0 ],
					"source" : [ "obj-67", 0 ]
				}

			}
, 			{
				"patchline" : 				{
					"destination" : [ "obj-20", 0 ],
					"source" : [ "obj-68", 0 ]
				}

			}
, 			{
				"patchline" : 				{
					"destination" : [ "obj-13", 0 ],
					"source" : [ "obj-69", 0 ]
				}

			}
, 			{
				"patchline" : 				{
					"destination" : [ "obj-71", 0 ],
					"source" : [ "obj-70", 0 ]
				}

			}
, 			{
				"patchline" : 				{
					"destination" : [ "obj-13", 0 ],
					"source" : [ "obj-71", 0 ]
				}

			}
, 			{
				"patchline" : 				{
					"destination" : [ "obj-74", 0 ],
					"source" : [ "obj-73", 0 ]
				}

			}
, 			{
				"patchline" : 				{
					"destination" : [ "obj-72", 0 ],
					"source" : [ "obj-74", 0 ]
				}

			}
, 			{
				"patchline" : 				{
					"destination" : [ "obj-11", 0 ],
					"source" : [ "obj-8", 0 ]
				}

			}
, 			{
				"patchline" : 				{
					"destination" : [ "obj-27", 0 ],
					"source" : [ "obj-9", 0 ]
				}

			}
 ],
		"parameters" : 		{
			"obj-56" : [ "live.gain~", "live.gain~", 0 ],
			"parameterbanks" : 			{
				"0" : 				{
					"index" : 0,
					"name" : "",
					"parameters" : [ "-", "-", "-", "-", "-", "-", "-", "-" ]
				}

			}
,
			"inherited_shortname" : 1
		}
,
		"dependency_cache" : [ 			{
				"name" : "computeMembraneModes.js",
				"bootpath" : "~/My Drive/Koncon/KC-SO-PHM2/13 - Modal Synthesis II - Membranes",
				"patcherrelativepath" : ".",
				"type" : "TEXT",
				"implicit" : 1
			}
 ],
		"autosave" : 0
	}

}
